<?xml version="1.0" encoding="UTF-8"?>
<svg id="Layer_1" data-name="Layer 1" xmlns="http://www.w3.org/2000/svg" viewBox="0 0 2000.75 1021.36">
  <defs>
    <style>
      .cls-1 {
        fill: #f7eeea;
      }

      .cls-2 {
        fill: #414042;
        stroke: #231f20;
        stroke-miterlimit: 10;
        stroke-width: .75px;
      }
    </style>
  </defs>
  <path class="cls-1" d="M932.91,1021.26c-2.23-.5-5.47.39-7.95.01v-9.78c1.54,2.13,7.57,4.77,7.95,9.77Z"/>
  <path class="cls-1" d="M942.84,1011.49c10.14,6.91.59,7.23,0,7.81-.12-2.59.17-5.23,0-7.81Z"/>
  <g>
    <path class="cls-2" d="M1574.96,425.46c6.31,1.53,6.27-2.37,9.17-5.65,14.07-15.9,21.56-28.71,43.02-36.18,59.2-20.62,98.86,17.45,104.04,77.1,9.22,106.09-19.63,231.36,39.7,328.06,75.48,123.01,259.08,54.01,215.95-98.36-10.02-35.38-50.89-70.34-87.58-56.67-31.76,11.83-24.8,41.78-21.48,70.09-42.1,7.01-46.38-41.3-18.74-64.57,56.86-47.87,127.46,3.17,138.78,70,25.95,153.17-151.95,192.12-246.7,99.87-102.07-99.37-58.44-232.47-72.32-354.83-5.89-51.96-42.53-85.54-82.71-38.97-27.96,32.41-24.9,115.99-20.23,158.43,1.64,14.89,4.94,33.76,16.89,42.99,4.46,3.44,11.88.93,11.52,6.57h-107.45c2.11-6.18,8.43-2.74,14.58-10.14,2.72-3.27,11.47-25.26,11.47-28.43v-270.01c-130.58,44.29-272.16,60.09-407.02,25.19-43.55-11.27-86.13-32.72-128.26-48.43-62.24,91.09-100.09,195.91-145.7,296.1-19.46,42.75-21.38,57.09-44.64,6.74-16.22-35.12-72.27-184.76-91.41-201-6.87-5.82-16.35-4.79-19.75-11.52h110.7c-1.37,7.16-12.87,3.72-15.74,12.28-2.36,7.04-.4,17.42.95,24.79,4.36,23.81,33.03,83.68,44.56,108.37,1.86,3.98,15.62,34.94,19.04,32.33,36.42-94.34,80.8-185.25,130.08-273.03-55.43-33.74-138.33-70.07-202.46-44.75-32,12.64-57.08,50.68-28.49,81.29,27.41,29.35,83.13,18.34,78.15-28.47,5.41-.14,6.52,11.26,6.29,14.77-1.26,19.28-19.73,33.57-37.25,35.51-78.95,8.73-103.26-80.01-38.49-120.13,72.52-44.92,169.99,3.29,236.88,39.61,57.73-79.78,137.21-151.52,241.12-140.79,40.34,4.17,82.5,41.6,79.97,85.61-2.76,47.91-49.51,89.91-95.85,85.03-33.92-3.57-66.64-35.48-42.64-70.03,8.76,0,3.51,14.42,7.23,22.66,2.54,5.63,13.05,12.9,18.93,14.02,66.48,12.7,118.72-91.2,47.94-119.81-75.66-30.58-172.91,39.78-220.71,96.46-5.08,6.03-22.26,25.73-21.35,31.65,1.31,8.49,98.04,47.47,112.76,52.05,131.35,40.82,276.13,27.64,405.25-14.81l2.77-3.85c.55-95.55,32.69-253.11,129.8-292.27,83.75-33.77,145.93,21.91,111.64,111.65-23.72,62.06-90.09,113.54-144.34,146.47-15.87,9.63-35.79,13.58-47.85,27.85v129.13ZM1720.11,182.55c29.48-33.72,51.44-74.12,47.07-121.15-2.64-28.41-26.73-50.67-54.36-51.63-76.24-2.64-106.09,87.66-120.07,150.59-3.45,15.52-20.08,114.47-14.52,120.85,50.14-21.43,105.39-56.93,141.88-98.66Z"/>
    <path class="cls-2" d="M480.98,693.77c44.17-21.09,87.94-48.55,138.44-50.29,56.13-1.94,124.58,28.05,131.8,92.22,15.08,134.13-165.02,147.25-239.23,75.39l-52.1-57.09c-99.75,90.06-192.29,213.84-341.61,197.71-135.25-14.62-159.24-185.74-45.28-253.9,79.02-47.26,215.07-20.9,195.56,97.48-11.95,72.52-130.89,79.17-131.09,7.48,0-2.81.56-9.37,4.86-8.34,6.19,58.6,84.43,32.99,90.91-15.4,12.44-92.87-82.38-115.06-149.12-79.83-123.12,65-90.82,251.04,56.56,239.4,118.72-9.38,214.34-145.63,303.08-214.61l1.03-4.42c-38.91-77.67-19.9-166.39-25.54-248.97-1.59-23.31-1.41-47.06-29.42-46.8,28.73-13.94,56.58-21.29,79.78-45.28,6.42,105.01-6.98,211.35,11.39,315.25ZM494.46,721.16c19.27,83.99,114.15,150.32,196.09,113.07,63.9-29.04,71.8-123.7,9.55-159.92-68.06-39.6-149.75,4.34-205.64,46.84Z"/>
    <path class="cls-2" d="M119.55,623.35c.28-5.71,8.47-4.49,12.92-8.49,2.89-2.6,6.02-8.74,7.36-12.55,7.89-22.52,9.64-143.21,2.26-164.86-5-14.69-9.73-10.32-22.53-13.66,11.79-9.87,28.3-11.06,41.27-17.86,15.96-8.37,23.87-25.35,40.1-27.42l-3.27,48.59,6.48,1.67c15.09-44.95,75.79-64.45,115.11-43.03,68.08,37.08,20.68,194.55,45.22,262,5.2,14.28,15.86,21.74,18.79,35.96-109.76-30.23-68.69-148.41-78.96-232.24-4.06-33.16-18.11-62.39-55.4-55.41-57.98,10.85-53.69,106.72-51.35,151.96.76,14.76,2.95,49.59,9.9,60.24l19.54,15.09h-107.45Z"/>
    <path class="cls-2" d="M1473.99,593.16c-1.6,21.11-27.85,34.77-47.06,33.68-44.48-2.53-51.51-62.4-52.2-97.39-16.73,38.31-34.61,86.13-79.58,95.77-84.07,18.01-123.72-103.66-33.73-138.71,30.59-11.91,110.62-7.88,115.01-49.26,7.51-70.79-94.61-62.68-94.6-16.92,0,14.59,13.44,32.91-9.61,37.34-30.56,5.86-37.8-30.31-17.66-52.01,26.6-28.66,92.4-35.16,126.3-20.08,70.85,31.52,42.08,119.8,47.44,182.56,2.74,32.1,17.53,45.7,45.68,25.02ZM1332.9,592c26.65-24.48,49.19-96.29,43.41-133-46.31,36.29-114.37,18.83-110.82,99.02,1.89,42.53,34.09,64.58,67.41,33.98Z"/>
    <path class="cls-2" d="M1193.98,596.52c-4.95,17.99-26.65,30.62-43.76,30.29-38.8-.74-49.64-39.5-53.84-72.26-.31-2.43,2.47-34.53-6.51-25.1-12.39,58.42-60.55,117.9-123.72,88.82-33.98-15.65-40.87-50.79-31.12-85.61,16.7-59.65,97.61-47.69,137.64-66.17,48.04-22.18,17.78-91.22-39.09-80.49-35.18,6.64-29.17,34.3-26.57,62.91-11.05,21.8-66.46,4.18-34.3-38.44,31.31-41.49,113.34-42.1,151.23-8.42,45.53,40.48,12.92,129.08,26.03,181.14,6.07,24.09,25.52,22.33,44.01,13.33ZM1096.32,459.01c-10.95,4.45-19,12.09-30.36,17.32-31.62,14.57-68.95,14.06-80.12,54.98-15.92,58.28,31.73,104.77,72.77,51.49,24.12-31.32,41.45-83.91,37.71-123.79Z"/>
    <path class="cls-2" d="M588.41,378.5v63.73l19.55-38.56c28.26-40.01,87.05-34.88,77.91,23.26-2.88,18.28-17.66,17.78-30.75,25.32,4.27-40.33-35.87-55.61-53.86-18.59-14.92,30.72-16.24,112.72-12.81,147.71,1.07,10.92,5.99,28.46,14.41,35.48,4.42,3.68,11.98.68,11.59,6.5h-107.45c4.45-6.55,9.19-2.89,15.8-12.24s9.44-25.28,10.36-36.28c2.38-28.53,3.7-104.08-.31-130.73-2.65-17.63-13.28-14.67-22.59-25.32,14.1-4.57,31.56-9.16,44.51-16.23,13.06-7.13,20.53-19.05,33.62-24.06Z"/>
    <ellipse class="cls-2" cx="442.8" cy="324.96" rx="30.06" ry="30.97"/>
  </g>
</svg>