<svg width="2329" height="1274" viewBox="0 0 2329 1274" fill="none" xmlns="http://www.w3.org/2000/svg">
<g filter="url(#filter0_d_117_14)">
<path d="M1739.96 551.46C1746.27 552.99 1746.23 549.09 1749.13 545.81C1763.2 529.91 1770.69 517.1 1792.15 509.63C1851.35 489.01 1891.01 527.08 1896.19 586.73C1905.41 692.82 1876.56 818.09 1935.89 914.79C2011.37 1037.8 2194.97 968.8 2151.84 816.43C2141.82 781.05 2100.95 746.09 2064.26 759.76C2032.5 771.59 2039.46 801.54 2042.78 829.85C2000.68 836.86 1996.4 788.55 2024.04 765.28C2080.9 717.41 2151.5 768.45 2162.82 835.28C2188.77 988.45 2010.87 1027.4 1916.12 935.15C1814.05 835.78 1857.68 702.68 1843.8 580.32C1837.91 528.36 1801.27 494.78 1761.09 541.35C1733.13 573.76 1736.19 657.34 1740.86 699.78C1742.5 714.67 1745.8 733.54 1757.75 742.77C1762.21 746.21 1769.63 743.7 1769.27 749.34H1661.82C1663.93 743.16 1670.25 746.6 1676.4 739.2C1679.12 735.93 1687.87 713.94 1687.87 710.77V440.76C1557.29 485.05 1415.71 500.85 1280.85 465.95C1237.3 454.68 1194.72 433.23 1152.59 417.52C1090.35 508.61 1052.5 613.43 1006.89 713.62C987.43 756.37 985.51 770.71 962.25 720.36C946.03 685.24 889.98 535.6 870.84 519.36C863.97 513.54 854.49 514.57 851.09 507.84H961.79C960.42 515 948.92 511.56 946.05 520.12C943.69 527.16 945.65 537.54 947 544.91C951.36 568.72 980.03 628.59 991.56 653.28C993.42 657.26 1007.18 688.22 1010.6 685.61C1047.02 591.27 1091.4 500.36 1140.68 412.58C1085.25 378.84 1002.35 342.51 938.22 367.83C906.22 380.47 881.14 418.51 909.73 449.12C937.14 478.47 992.86 467.46 987.88 420.65C993.29 420.51 994.4 431.91 994.17 435.42C992.91 454.7 974.44 468.99 956.92 470.93C877.97 479.66 853.66 390.92 918.43 350.8C990.95 305.88 1088.42 354.09 1155.31 390.41C1213.04 310.63 1292.52 238.89 1396.43 249.62C1436.77 253.79 1478.93 291.22 1476.4 335.23C1473.64 383.14 1426.89 425.14 1380.55 420.26C1346.63 416.69 1313.91 384.78 1337.91 350.23C1346.67 350.23 1341.42 364.65 1345.14 372.89C1347.68 378.52 1358.19 385.79 1364.07 386.91C1430.55 399.61 1482.79 295.71 1412.01 267.1C1336.35 236.52 1239.1 306.88 1191.3 363.56C1186.22 369.59 1169.04 389.29 1169.95 395.21C1171.26 403.7 1267.99 442.68 1282.71 447.26C1414.06 488.08 1558.84 474.9 1687.96 432.45L1690.73 428.6C1691.28 333.05 1723.42 175.49 1820.53 136.33C1904.28 102.56 1966.46 158.24 1932.17 247.98C1908.45 310.04 1842.08 361.52 1787.83 394.45C1771.96 404.08 1752.04 408.03 1739.98 422.3V551.43L1739.96 551.46ZM1885.11 308.55C1914.59 274.83 1936.55 234.43 1932.18 187.4C1929.54 158.99 1905.45 136.73 1877.82 135.77C1801.58 133.13 1771.73 223.43 1757.75 286.36C1754.3 301.88 1737.67 400.83 1743.23 407.21C1793.37 385.78 1848.62 350.28 1885.11 308.55Z" fill="white" stroke="white" stroke-width="0.75" stroke-miterlimit="10"/>
<path d="M645.98 819.77C690.15 798.68 733.92 771.22 784.42 769.48C840.55 767.54 909 797.53 916.22 861.7C931.3 995.83 751.2 1008.95 676.99 937.09L624.89 880C525.14 970.06 432.6 1093.84 283.28 1077.71C148.03 1063.09 124.04 891.97 238 823.81C317.02 776.55 453.07 802.91 433.56 921.29C421.61 993.81 302.67 1000.46 302.47 928.77C302.47 925.96 303.03 919.4 307.33 920.43C313.52 979.03 391.76 953.42 398.24 905.03C410.68 812.16 315.86 789.97 249.12 825.2C126 890.2 158.3 1076.24 305.68 1064.6C424.4 1055.22 520.02 918.97 608.76 849.99L609.79 845.57C570.88 767.9 589.89 679.18 584.25 596.6C582.66 573.29 582.84 549.54 554.83 549.8C583.56 535.86 611.41 528.51 634.61 504.52C641.03 609.53 627.63 715.87 646 819.77H645.98ZM659.46 847.16C678.73 931.15 773.61 997.48 855.55 960.23C919.45 931.19 927.35 836.53 865.1 800.31C797.04 760.71 715.35 804.65 659.46 847.15V847.16Z" fill="white" stroke="white" stroke-width="0.75" stroke-miterlimit="10"/>
<path d="M284.55 749.35C284.83 743.64 293.02 744.86 297.47 740.86C300.36 738.26 303.49 732.12 304.83 728.31C312.72 705.79 314.47 585.1 307.09 563.45C302.09 548.76 297.36 553.13 284.56 549.79C296.35 539.92 312.86 538.73 325.83 531.93C341.79 523.56 349.7 506.58 365.93 504.51L362.66 553.1L369.14 554.77C384.23 509.82 444.93 490.32 484.25 511.74C552.33 548.82 504.93 706.29 529.47 773.74C534.67 788.02 545.33 795.48 548.26 809.7C438.5 779.47 479.57 661.29 469.3 577.46C465.24 544.3 451.19 515.07 413.9 522.05C355.92 532.9 360.21 628.77 362.55 674.01C363.31 688.77 365.5 723.6 372.45 734.25L391.99 749.34H284.54L284.55 749.35Z" fill="white" stroke="white" stroke-width="0.75" stroke-miterlimit="10"/>
<path d="M1638.99 719.16C1637.39 740.27 1611.14 753.93 1591.93 752.84C1547.45 750.31 1540.42 690.44 1539.73 655.45C1523 693.76 1505.12 741.58 1460.15 751.22C1376.08 769.23 1336.43 647.56 1426.42 612.51C1457.01 600.6 1537.04 604.63 1541.43 563.25C1548.94 492.46 1446.82 500.57 1446.83 546.33C1446.83 560.92 1460.27 579.24 1437.22 583.67C1406.66 589.53 1399.42 553.36 1419.56 531.66C1446.16 503 1511.96 496.5 1545.86 511.58C1616.71 543.1 1587.94 631.38 1593.3 694.14C1596.04 726.24 1610.83 739.84 1638.98 719.16H1638.99ZM1497.9 718C1524.55 693.52 1547.09 621.71 1541.31 585C1495 621.29 1426.94 603.83 1430.49 684.02C1432.38 726.55 1464.58 748.6 1497.9 718Z" fill="white" stroke="white" stroke-width="0.75" stroke-miterlimit="10"/>
<path d="M1358.98 722.52C1354.03 740.51 1332.33 753.14 1315.22 752.81C1276.42 752.07 1265.58 713.31 1261.38 680.55C1261.07 678.12 1263.85 646.02 1254.87 655.45C1242.48 713.87 1194.32 773.35 1131.15 744.27C1097.17 728.62 1090.28 693.48 1100.03 658.66C1116.73 599.01 1197.64 610.97 1237.67 592.49C1285.71 570.31 1255.45 501.27 1198.58 512C1163.4 518.64 1169.41 546.3 1172.01 574.91C1160.96 596.71 1105.55 579.09 1137.71 536.47C1169.02 494.98 1251.05 494.37 1288.94 528.05C1334.47 568.53 1301.86 657.13 1314.97 709.19C1321.04 733.28 1340.49 731.52 1358.98 722.52ZM1261.32 585.01C1250.37 589.46 1242.32 597.1 1230.96 602.33C1199.34 616.9 1162.01 616.39 1150.84 657.31C1134.92 715.59 1182.57 762.08 1223.61 708.8C1247.73 677.48 1265.06 624.89 1261.32 585.01Z" fill="white" stroke="white" stroke-width="0.75" stroke-miterlimit="10"/>
<path d="M753.41 504.5V568.23L772.96 529.67C801.22 489.66 860.01 494.79 850.87 552.93C847.99 571.21 833.21 570.71 820.12 578.25C824.39 537.92 784.25 522.64 766.26 559.66C751.34 590.38 750.02 672.38 753.45 707.37C754.52 718.29 759.44 735.83 767.86 742.85C772.28 746.53 779.84 743.53 779.45 749.35H672C676.45 742.8 681.19 746.46 687.8 737.11C694.41 727.76 697.24 711.83 698.16 700.83C700.54 672.3 701.86 596.75 697.85 570.1C695.2 552.47 684.57 555.43 675.26 544.78C689.36 540.21 706.82 535.62 719.77 528.55C732.83 521.42 740.3 509.5 753.39 504.49L753.41 504.5Z" fill="white" stroke="white" stroke-width="0.75" stroke-miterlimit="10"/>
<path d="M607.8 481.93C624.402 481.93 637.86 468.064 637.86 450.96C637.86 433.856 624.402 419.99 607.8 419.99C591.198 419.99 577.74 433.856 577.74 450.96C577.74 468.064 591.198 481.93 607.8 481.93Z" fill="white" stroke="white" stroke-width="0.75" stroke-miterlimit="10"/>
</g>
<path d="M316.62 364.9C325.98 367.06 329.13 376.15 332.73 384.61C336.15 392.44 339.48 399.28 345.51 399.28V400C312.75 400 333.09 365.26 312.75 365.26C308.34 365.26 304.47 363.01 301.77 358.78C300.15 356.17 299.07 353.29 298.26 349.51V400H291.15V336.37H306.99C320.22 336.37 331.11 340.33 331.11 350.59C331.11 359.41 324.45 363.91 316.62 364.9ZM324 350.59C324 340.33 315.72 337.09 306.99 337.09H298.26V342.67C298.26 349.24 299.88 354.37 302.4 358.33C304.92 362.02 308.61 364.63 312.75 364.63H313.38C319.14 364.27 324 360.04 324 350.59ZM358.725 357.61V399.28H373.935C381.765 399.28 386.445 395.77 389.685 386.68L387.615 400H351.795V336.46H388.155V343.66C381.765 337.54 377.085 337.09 366.105 337.09H358.725V351.67C358.725 364 365.025 366.52 377.355 366.52V373.63C372.135 367.69 361.335 368.23 358.725 357.61ZM449.554 336.37H450.454L445.774 347.35L423.544 400H422.824L396.004 336.37H403.384L426.514 391L430.024 382.45L449.554 336.37ZM463.666 357.61V399.28H478.876C486.706 399.28 491.386 395.77 494.626 386.68L492.556 400H456.736V336.46H493.096V343.66C486.706 337.54 482.026 337.09 471.046 337.09H463.666V351.67C463.666 364 469.966 366.52 482.296 366.52V373.63C477.076 367.69 466.276 368.23 463.666 357.61ZM539.015 386.68L536.855 400H500.945V336.46H508.145V399.28H523.355C531.095 399.28 535.685 395.77 539.015 386.68ZM548.601 351.76C548.601 331.69 581.451 332.14 589.191 344.65V354.1C580.101 335.65 563.721 334.3 555.441 340.06C548.421 344.65 549.141 354.55 571.101 364.81C580.911 369.04 590.271 374.17 590.271 384.79C590.271 389.65 588.291 393.43 585.051 396.04C574.791 403.87 554.181 400.27 544.011 387.22V374.71C552.831 397.03 572.991 404.86 584.331 395.32C590.271 390.37 588.651 381.1 567.681 371.47C558.051 367.15 548.601 362.02 548.601 351.76ZM626.387 346C623.867 346 621.977 343.84 621.797 341.68C621.347 335.65 624.857 330.16 629.177 325.39L629.897 326.02C626.387 329.08 622.607 336.1 626.117 337C628.637 337.36 630.977 338.8 630.977 341.68C630.977 343.84 628.997 346 626.387 346ZM668.133 393.25C672.543 393.25 678.483 391.18 680.463 387.85C680.463 387.85 679.653 389.56 677.403 393.25L673.803 400H637.263V397.12L640.143 394.96C645.903 390.1 651.573 385.06 662.193 373.81C669.573 366.16 670.203 358.24 669.843 351.49C669.213 344.65 663.993 337.54 655.353 337.99C641.403 339.43 641.313 344.65 638.973 355.18V336.55C642.213 342.4 644.373 337.45 656.073 336.91C664.083 336.55 674.883 340.33 676.503 349.24C678.303 358.24 672.993 365.26 662.823 374.53C654.093 383.17 651.303 386.59 643.113 393.25H668.133ZM714.466 360.58C724.096 361.84 732.376 370.39 731.206 381.91C730.216 390.73 722.836 401.44 708.076 400.72C698.446 400 685.036 392.44 686.926 372.1C689.086 349.69 710.686 337.45 726.526 337.27L726.436 338.08C716.536 338.08 695.746 343.48 694.126 370.57C696.736 364.36 704.656 359.41 714.466 360.58ZM724.006 382C724.636 371.47 720.406 364.45 712.576 362.47C704.386 360.04 694.216 366.25 694.036 375.43C693.136 397.48 705.196 400.18 711.046 399.73C720.316 398.56 723.916 389.74 724.006 382Z" fill="white"/>
<path d="M957.205 909V849.585C948.11 849.67 942.585 850.18 936.975 855.535V848.905H983.98V855.535C978.2 850.18 972.76 849.67 963.75 849.585V909H957.205ZM996.394 873.725V909H989.934V848.99H996.394V869.05C996.394 886.475 1019.51 870.665 1023.85 882.48V848.99H1030.48V909H1023.85V887.07C1023.85 869.9 1000.9 885.455 996.394 873.725ZM1042.96 868.965V908.32H1057.33C1064.72 908.32 1069.14 905.005 1072.2 896.42L1070.25 909H1036.42V848.99H1070.76V855.79C1064.72 850.01 1060.3 849.585 1049.93 849.585H1042.96V863.355C1042.96 875 1048.91 877.38 1060.56 877.38V884.095C1055.63 878.485 1045.43 878.995 1042.96 868.965ZM1108.46 868.965V909H1101.91V848.99H1136.25V855.79C1130.3 850.01 1125.88 849.585 1115.34 849.585H1108.46V863.355C1108.46 875 1114.41 877.38 1126.22 877.38V884.095C1121.04 878.485 1111.01 878.995 1108.46 868.965ZM1178.13 896.42L1176.09 909H1142.17V848.99H1148.97V908.32H1163.34C1170.65 908.32 1174.98 905.005 1178.13 896.42ZM1202.3 849.84C1218.19 845.335 1234.77 855.195 1238.93 871.345C1243.44 887.24 1233.83 903.985 1217.68 908.235C1201.7 912.74 1185.3 903.135 1180.88 886.815C1176.63 870.665 1186.23 854.175 1202.3 849.84ZM1202.38 850.52C1187.93 854.26 1184.28 872.025 1187.76 885.03C1191.16 897.865 1203.15 911.465 1217.51 907.64C1232.05 903.9 1235.7 885.965 1232.39 873.045C1228.9 859.955 1217 846.44 1202.38 850.52ZM1288.2 909H1287.61L1275.62 880.525L1263.81 909H1263.04L1237.63 848.905H1245.02L1266.7 900.5L1275.37 879.76L1262.53 848.905H1269.67L1278.94 871.26L1284.12 859.275C1287.44 850.945 1294.49 846.95 1301.38 849.67C1307.92 852.22 1309.37 858.935 1306.65 865.14L1288.2 909ZM1279.45 872.195L1291.26 900.5L1306.22 865.14C1308.6 859.275 1307.5 852.645 1301.21 850.18C1293.81 847.46 1287.61 852.56 1284.72 859.275L1279.45 872.195ZM1360.18 849.84C1376.07 845.335 1392.65 855.195 1396.81 871.345C1401.32 887.24 1391.71 903.985 1375.56 908.235C1359.58 912.74 1343.18 903.135 1338.76 886.815C1334.51 870.665 1344.11 854.175 1360.18 849.84ZM1360.26 850.52C1345.81 854.26 1342.16 872.025 1345.64 885.03C1349.04 897.865 1361.03 911.465 1375.39 907.64C1389.93 903.9 1393.58 885.965 1390.27 873.045C1386.78 859.955 1374.88 846.44 1360.26 850.52ZM1410.52 868.965V909H1403.98V848.99H1438.32V855.79C1432.37 850.01 1427.95 849.585 1417.41 849.585H1410.52V863.355C1410.52 875 1416.47 877.38 1428.29 877.38V884.095C1423.1 878.485 1413.07 878.995 1410.52 868.965ZM1490.5 850.605C1475.97 854.6 1472.31 872.45 1475.54 885.37C1479.11 898.375 1491.35 911.805 1505.8 907.895C1515.24 905.345 1520.08 896.93 1521.27 887.75V898.545C1517.53 903.22 1512.09 906.705 1505.97 908.32C1489.74 912.995 1473.59 903.22 1469 887.07C1464.83 870.92 1474.27 854.26 1490.33 850.01C1509.29 844.825 1518.13 856.98 1518.13 856.98V865.82C1518.13 865.82 1509.03 845.42 1490.5 850.605ZM1551.3 875.85C1560.14 877.89 1563.11 886.475 1566.51 894.465C1569.74 901.86 1572.89 908.32 1578.58 908.32V909C1547.64 909 1566.85 876.19 1547.64 876.19C1543.48 876.19 1539.82 874.065 1537.27 870.07C1535.74 867.605 1534.72 864.885 1533.96 861.315V909H1527.24V848.905H1542.2C1554.7 848.905 1564.98 852.645 1564.98 862.335C1564.98 870.665 1558.69 874.915 1551.3 875.85ZM1558.27 862.335C1558.27 852.645 1550.45 849.585 1542.2 849.585H1533.96V854.855C1533.96 861.06 1535.49 865.905 1537.87 869.645C1540.25 873.13 1543.73 875.595 1547.64 875.595H1548.24C1553.68 875.255 1558.27 871.26 1558.27 862.335ZM1591.06 868.965V908.32H1605.43C1612.82 908.32 1617.24 905.005 1620.3 896.42L1618.35 909H1584.52V848.99H1618.86V855.79C1612.82 850.01 1608.4 849.585 1598.03 849.585H1591.06V863.355C1591.06 875 1597.01 877.38 1608.66 877.38V884.095C1603.73 878.485 1593.53 878.995 1591.06 868.965ZM1667.58 909L1657.98 885.965C1643.53 887.325 1640.21 896.08 1637.49 902.285C1635.88 906.535 1634.43 909.68 1630.61 909.51C1630.1 909.425 1629.84 909.425 1629.25 908.915C1626.95 907.895 1626.02 905.345 1626.44 901.52C1626.87 897.78 1628.06 893.02 1630.1 887.58C1634.6 875.425 1642.25 859.955 1648.71 848.99H1649.31L1674.72 909H1667.58ZM1657.72 885.37L1645.23 856.3C1640.04 866.33 1634.26 877.89 1630.69 887.75C1628.65 893.19 1627.46 897.865 1627.04 901.52C1626.87 905.005 1627.46 907.64 1629.5 908.32C1630.01 908.49 1630.27 908.49 1630.69 908.745C1634.09 909 1635.45 906.025 1636.81 902.115C1639.62 895.74 1643.02 886.815 1657.72 885.37ZM1685.6 909V849.585C1676.5 849.67 1670.98 850.18 1665.37 855.535V848.905H1712.37V855.535C1706.59 850.18 1701.15 849.67 1692.14 849.585V909H1685.6ZM1718.33 909V848.99H1724.7V909H1718.33ZM1753.05 849.84C1768.95 845.335 1785.52 855.195 1789.69 871.345C1794.19 887.24 1784.59 903.985 1768.44 908.235C1752.46 912.74 1736.05 903.135 1731.63 886.815C1727.38 870.665 1736.99 854.175 1753.05 849.84ZM1753.14 850.52C1738.69 854.26 1735.03 872.025 1738.52 885.03C1741.92 897.865 1753.9 911.465 1768.27 907.64C1782.8 903.9 1786.46 885.965 1783.14 873.045C1779.66 859.955 1767.76 846.44 1753.14 850.52ZM1796.85 848.99H1803.23C1812.49 848.99 1819.72 855.96 1824.65 865.82C1829.66 875.085 1832.47 886.815 1833.74 897.78V848.99H1840.12V909H1833.74C1833.74 895.485 1830.6 878.485 1824.31 866.16C1819.21 856.47 1812.41 849.585 1803.23 849.585V909H1796.85V848.99Z" fill="white"/>
<defs>
<filter id="filter0_d_117_14" x="164.015" y="125.984" width="2012.74" height="974.531" filterUnits="userSpaceOnUse" color-interpolation-filters="sRGB">
<feFlood flood-opacity="0" result="BackgroundImageFix"/>
<feColorMatrix in="SourceAlpha" type="matrix" values="0 0 0 0 0 0 0 0 0 0 0 0 0 0 0 0 0 0 127 0" result="hardAlpha"/>
<feOffset dx="5" dy="15"/>
<feGaussianBlur stdDeviation="3"/>
<feComposite in2="hardAlpha" operator="out"/>
<feColorMatrix type="matrix" values="0 0 0 0 0 0 0 0 0 0 0 0 0 0 0 0 0 0 0.42 0"/>
<feBlend mode="normal" in2="BackgroundImageFix" result="effect1_dropShadow_117_14"/>
<feBlend mode="normal" in="SourceGraphic" in2="effect1_dropShadow_117_14" result="shape"/>
</filter>
</defs>
</svg>
